<svg width="378" height="378" viewBox="0 0 378 378" fill="none" xmlns="http://www.w3.org/2000/svg">
<rect width="378" height="378" rx="32" fill="white"/>
<rect width="378" height="378" rx="32" fill="url(#paint0_linear)"/>
<rect x="1.5" y="1.5" width="375" height="375" rx="30.5" stroke="#3A511D" stroke-opacity="0.76" stroke-width="3"/>
<path fill-rule="evenodd" clip-rule="evenodd" d="M264.597 86.0479C257.275 106.015 238.098 120.262 215.593 120.262C215.439 120.262 215.286 120.261 215.132 120.26L203.745 260.705C225.64 266.903 241.683 287.037 241.683 310.917C241.683 314.873 241.243 318.725 240.409 322.429C294.362 307.603 334 258.198 334 199.534C334 150.055 305.801 107.161 264.597 86.0479ZM137.496 306.652C138.244 297.399 141.407 288.828 146.353 281.57C129 268.355 115.537 250.294 107.984 229.404C101.086 232.768 93.3359 234.655 85.1448 234.655C84.7695 234.655 84.395 234.651 84.0216 234.643C92.5994 264.638 111.893 290.11 137.496 306.652ZM98.4629 132.012C103.895 133.441 108.982 135.725 113.569 138.711C125.082 116.077 143.905 97.7866 166.928 86.948C165.957 84.4428 165.173 81.8439 164.594 79.1686C136.996 88.7903 113.721 107.636 98.4629 132.012ZM127.003 151.317C133.644 126.808 148.746 105.779 168.981 91.5589C175.962 105.393 188.92 115.695 204.463 119.072L178.566 259.886C173.884 260.885 169.434 262.512 165.309 264.674C148.069 251.435 134.961 233.081 128.256 211.881C133.978 203.508 137.324 193.383 137.324 182.476C137.324 170.796 133.487 160.012 127.003 151.317Z" fill="url(#paint1_radial)"/>
<circle cx="215.593" cy="68.0828" r="42.1448" fill="#A09F9E"/>
<circle cx="215.593" cy="68.0828" r="42.1448" fill="url(#paint2_radial)"/>
<circle cx="85.1448" cy="182.476" r="42.1448" fill="url(#paint3_radial)"/>
<circle cx="185.49" cy="310.917" r="42.1448" fill="#A2A2A0"/>
<circle cx="185.49" cy="310.917" r="42.1448" fill="url(#paint4_radial)"/>
<defs>
<linearGradient id="paint0_linear" x1="189" y1="0" x2="189" y2="378" gradientUnits="userSpaceOnUse">
<stop stop-color="white"/>
<stop offset="1" stop-color="white" stop-opacity="0"/>
</linearGradient>
<radialGradient id="paint1_radial" cx="0" cy="0" r="1" gradientUnits="userSpaceOnUse" gradientTransform="translate(209.572 169.431) rotate(90.2103) scale(152.999 157.224)">
<stop stop-color="#AAD272"/>
<stop offset="1" stop-color="#3A511D"/>
</radialGradient>
<radialGradient id="paint2_radial" cx="0" cy="0" r="1" gradientUnits="userSpaceOnUse" gradientTransform="translate(215.593 68.0828) rotate(90) scale(42.1448)">
<stop stop-color="#CBCBCB"/>
<stop offset="1" stop-color="#646361" stop-opacity="0.87"/>
</radialGradient>
<radialGradient id="paint3_radial" cx="0" cy="0" r="1" gradientUnits="userSpaceOnUse" gradientTransform="translate(85.1448 182.476) rotate(90) scale(42.1448)">
<stop stop-color="#CBCBCB"/>
<stop offset="1" stop-color="#646361" stop-opacity="0.87"/>
</radialGradient>
<radialGradient id="paint4_radial" cx="0" cy="0" r="1" gradientUnits="userSpaceOnUse" gradientTransform="translate(185.49 310.917) rotate(90) scale(42.1448)">
<stop stop-color="#CBCBCB"/>
<stop offset="1" stop-color="#646361" stop-opacity="0.87"/>
</radialGradient>
</defs>
</svg>
