<svg id="Camada_2" data-name="Camada 2" xmlns="http://www.w3.org/2000/svg" viewBox="0 0 220 220"><defs><style>.cls-1{fill:#e52421;}.cls-2{fill:#fff;}</style></defs><g id="União_1" data-name="União 1"><path class="cls-1" d="M110,214.5A104.57,104.57,0,0,1,13.71,69.32,104.88,104.88,0,0,1,69.32,13.71a104.89,104.89,0,0,1,81.36,0,104.7,104.7,0,0,1,33.21,22.4A104.46,104.46,0,0,1,110,214.5ZM48,68.72A73.78,73.78,0,0,0,35.5,110,74.58,74.58,0,0,0,110,184.5,73.78,73.78,0,0,0,151.28,172ZM69.32,47.61,172.39,150.68A74.47,74.47,0,0,0,69.32,47.61Z"/><path class="cls-2" d="M110,212A102,102,0,0,0,149.7,16,102,102,0,0,0,53,194.58,101.66,101.66,0,0,0,110,212M47.66,64.84l107.5,107.5A77,77,0,0,1,47.66,64.84M110,33a77,77,0,0,1,62.75,121.58L65.42,47.25A76.58,76.58,0,0,1,110,33m0,184a106.49,106.49,0,0,1-59.83-18.28,107.33,107.33,0,0,1-38.76-47.07A106.85,106.85,0,0,1,21.28,50.17,107.33,107.33,0,0,1,68.35,11.41a107.34,107.34,0,0,1,83.3,0,107.33,107.33,0,0,1,56.94,56.94,106.85,106.85,0,0,1-9.87,101.48,107.33,107.33,0,0,1-47.07,38.76A106.38,106.38,0,0,1,110,217ZM48.44,72.69A71.3,71.3,0,0,0,38,110a72.08,72.08,0,0,0,72,72,71.3,71.3,0,0,0,37.31-10.44ZM73.31,48.06l98.62,98.63A71.32,71.32,0,0,0,182,110,72,72,0,0,0,73.31,48.06Z"/></g></svg>