<svg width="710" height="220" viewBox="0 0 710 220" fill="none" xmlns="http://www.w3.org/2000/svg">
<path d="M349.56 56.87C349.56 58.2894 350.711 59.44 352.13 59.44C353.549 59.44 354.7 58.2894 354.7 56.87V24.52C354.7 23.1006 353.549 21.95 352.13 21.95C350.711 21.95 349.56 23.1006 349.56 24.52V56.87Z" fill="#39AA35"/>
<path d="M375.471 60.8807C374.623 62.0187 374.858 63.6289 375.996 64.4772C377.134 65.3254 378.744 65.0905 379.592 63.9525L398.925 38.0151C399.773 36.877 399.539 35.2668 398.401 34.4186C397.263 33.5703 395.652 33.8052 394.804 34.9433L375.471 60.8807Z" fill="#39AA35"/>
<path d="M309.44 34.934C308.592 33.796 306.982 33.5611 305.844 34.4094C304.706 35.2576 304.471 36.8678 305.319 38.0058L324.653 63.9433C325.501 65.0813 327.111 65.3162 328.249 64.4679C329.387 63.6197 329.622 62.0095 328.774 60.8715L309.44 34.934Z" fill="#39AA35"/>
<path d="M349.56 195.48C349.56 196.899 350.711 198.05 352.13 198.05C353.549 198.05 354.7 196.899 354.7 195.48V163.13C354.7 161.711 353.549 160.56 352.13 160.56C350.711 160.56 349.56 161.711 349.56 163.13V195.48Z" fill="#39AA35"/>
<path d="M394.817 185.046C395.665 186.184 397.275 186.419 398.413 185.571C399.551 184.723 399.786 183.112 398.938 181.974L379.605 156.037C378.756 154.899 377.146 154.664 376.008 155.512C374.87 156.36 374.635 157.971 375.483 159.109L394.817 185.046Z" fill="#39AA35"/>
<path d="M328.786 159.139C329.634 158.001 329.4 156.391 328.261 155.543C327.123 154.694 325.513 154.929 324.665 156.067L305.332 182.005C304.484 183.143 304.719 184.753 305.857 185.601C306.995 186.45 308.605 186.215 309.453 185.077L328.786 159.139Z" fill="#39AA35"/>
<path d="M187.12 110C187.116 108.431 187.527 106.889 188.31 105.53H18.13V114.47H188.31C187.527 113.111 187.116 111.569 187.12 110Z" fill="white"/>
<path d="M212.11 116.56H196.18C194.44 116.56 192.772 115.869 191.542 114.639C190.311 113.408 189.62 111.74 189.62 110C189.62 108.26 190.311 106.592 191.542 105.361C192.772 104.131 194.44 103.44 196.18 103.44H212.11V98.44H196.18C193.114 98.44 190.174 99.6579 188.006 101.826C185.838 103.994 184.62 106.934 184.62 110C184.62 113.066 185.838 116.006 188.006 118.174C190.174 120.342 193.114 121.56 196.18 121.56H212.11V116.56Z" fill="white"/>
<path d="M224.73 97.27H224.72C223.709 97.27 222.89 98.0893 222.89 99.1V120.89C222.89 121.901 223.709 122.72 224.72 122.72H224.73C225.741 122.72 226.56 121.901 226.56 120.89V99.1C226.56 98.0893 225.741 97.27 224.73 97.27Z" fill="white"/>
<path d="M233.21 97.27H233.2C232.189 97.27 231.37 98.0893 231.37 99.1V120.89C231.37 121.901 232.189 122.72 233.2 122.72H233.21C234.221 122.72 235.04 121.901 235.04 120.89V99.1C235.04 98.0893 234.221 97.27 233.21 97.27Z" fill="white"/>
<path d="M244.35 131.69H222.66C220.543 131.674 218.517 130.826 217.02 129.329C215.523 127.833 214.676 125.807 214.66 123.69V96.36C214.676 94.2431 215.523 92.2174 217.02 90.7205C218.517 89.2236 220.543 88.3757 222.66 88.36H244.35C244.879 86.5462 245.747 84.8494 246.91 83.36H222.66C219.218 83.3784 215.922 84.7539 213.488 87.1879C211.054 89.6219 209.678 92.9178 209.66 96.36V123.64C209.678 127.082 211.054 130.378 213.488 132.812C215.922 135.246 219.218 136.622 222.66 136.64H246.91C245.753 135.166 244.885 133.486 244.35 131.69V131.69Z" fill="white"/>
<path d="M301.29 145H258.66C254.045 144.995 249.621 143.158 246.359 139.894C243.096 136.63 241.263 132.205 241.26 127.59V92.46C241.263 87.8451 243.096 83.4199 246.359 80.1557C249.621 76.8916 254.045 75.0553 258.66 75.05H301.29V145ZM258.66 80.1C255.371 80.1053 252.219 81.4148 249.894 83.7412C247.57 86.0677 246.263 89.2212 246.26 92.51V127.59C246.263 130.879 247.57 134.032 249.894 136.359C252.219 138.685 255.371 139.995 258.66 140H296.29V80.05L258.66 80.1Z" fill="white"/>
<path d="M305.78 150.1C303.264 150.097 300.852 149.097 299.073 147.318C297.293 145.538 296.293 143.126 296.29 140.61V79.39C296.29 76.8705 297.291 74.4541 299.073 72.6725C300.854 70.8909 303.27 69.89 305.79 69.89C308.31 69.89 310.726 70.8909 312.508 72.6725C314.289 74.4541 315.29 76.8705 315.29 79.39V140.61C315.289 141.858 315.042 143.093 314.563 144.245C314.084 145.397 313.384 146.443 312.5 147.325C311.617 148.206 310.569 148.904 309.416 149.381C308.263 149.857 307.028 150.101 305.78 150.1V150.1ZM305.78 74.89C304.588 74.8927 303.446 75.3679 302.605 76.2116C301.763 77.0552 301.29 78.1983 301.29 79.39V140.61C301.29 141.803 301.764 142.948 302.608 143.792C303.452 144.636 304.597 145.11 305.79 145.11C306.984 145.11 308.128 144.636 308.972 143.792C309.816 142.948 310.29 141.803 310.29 140.61V79.39C310.287 78.1956 309.811 77.0511 308.966 76.2074C308.12 75.3638 306.974 74.89 305.78 74.89V74.89Z" fill="white"/>
<path d="M525.75 105.53C526.533 106.889 526.944 108.431 526.94 110C526.944 111.569 526.533 113.111 525.75 114.47H695.93V105.53H525.75Z" fill="white"/>
<path d="M517.88 98.44H502V103.44H517.93C519.67 103.44 521.338 104.131 522.569 105.361C523.799 106.592 524.49 108.26 524.49 110C524.49 111.74 523.799 113.408 522.569 114.639C521.338 115.869 519.67 116.56 517.93 116.56H502V121.56H517.93C520.996 121.56 523.936 120.342 526.104 118.174C528.272 116.006 529.49 113.066 529.49 110C529.49 106.934 528.272 103.994 526.104 101.826C523.936 99.6579 520.996 98.44 517.93 98.44H517.88Z" fill="white"/>
<path d="M489.33 122.73H489.34C490.351 122.73 491.17 121.911 491.17 120.9V99.11C491.17 98.0993 490.351 97.28 489.34 97.28H489.33C488.319 97.28 487.5 98.0993 487.5 99.11V120.9C487.5 121.911 488.319 122.73 489.33 122.73Z" fill="white"/>
<path d="M480.84 122.73H480.85C481.861 122.73 482.68 121.911 482.68 120.9V99.11C482.68 98.0993 481.861 97.28 480.85 97.28H480.84C479.829 97.28 479.01 98.0993 479.01 99.11V120.9C479.01 121.911 479.829 122.73 480.84 122.73Z" fill="white"/>
<path d="M400.83 91.05H374C373.568 91.05 373.153 90.8782 372.848 90.5726C372.542 90.2669 372.37 89.8523 372.37 89.42C372.37 88.9877 372.542 88.5731 372.848 88.2674C373.153 87.9617 373.568 87.79 374 87.79H400.83V82.79H374C372.242 82.79 370.555 83.4885 369.312 84.7319C368.069 85.9752 367.37 87.6616 367.37 89.42C367.37 91.1784 368.069 92.8647 369.312 94.1081C370.555 95.3515 372.242 96.05 374 96.05H400.83V91.05Z" fill="white"/>
<path d="M400.83 132.21H374C373.568 132.21 373.153 132.038 372.848 131.733C372.542 131.427 372.37 131.012 372.37 130.58C372.37 130.148 372.542 129.733 372.848 129.427C373.153 129.122 373.568 128.95 374 128.95H400.83V123.95H374C372.242 123.95 370.555 124.649 369.312 125.892C368.069 127.135 367.37 128.822 367.37 130.58C367.37 132.338 368.069 134.025 369.312 135.268C370.555 136.511 372.242 137.21 374 137.21H400.83V132.21Z" fill="white"/>
<path d="M491.4 76.89H469.61C469.911 77.6892 470.067 78.5359 470.07 79.39V81.89H491.4C493.525 81.8926 495.564 82.7347 497.072 84.233C498.579 85.7313 499.434 87.7645 499.45 89.89V130.01C499.447 132.144 498.598 134.19 497.089 135.699C495.58 137.208 493.534 138.057 491.4 138.06H470.07V140.56C470.067 141.414 469.911 142.261 469.61 143.06H491.4C494.859 143.055 498.176 141.678 500.622 139.232C503.068 136.786 504.445 133.469 504.45 130.01V89.94C504.445 86.4806 503.068 83.1643 500.622 80.7181C498.176 78.2719 494.859 76.8953 491.4 76.89Z" fill="white"/>
<path d="M463.08 150.1C460.564 150.097 458.152 149.097 456.373 147.318C454.593 145.538 453.593 143.126 453.59 140.61V79.39C453.59 76.8705 454.591 74.4541 456.373 72.6725C458.154 70.8909 460.571 69.89 463.09 69.89C465.61 69.89 468.026 70.8909 469.808 72.6725C471.589 74.4541 472.59 76.8705 472.59 79.39V140.61C472.59 141.858 472.344 143.094 471.866 144.246C471.388 145.399 470.687 146.446 469.803 147.328C468.92 148.209 467.872 148.908 466.718 149.383C465.564 149.859 464.328 150.103 463.08 150.1V150.1ZM463.08 74.89C461.888 74.8927 460.746 75.3679 459.905 76.2116C459.063 77.0552 458.59 78.1983 458.59 79.39V140.61C458.59 141.803 459.064 142.948 459.908 143.792C460.752 144.636 461.897 145.11 463.09 145.11C464.284 145.11 465.428 144.636 466.272 143.792C467.116 142.948 467.59 141.803 467.59 140.61V79.39C467.59 78.7982 467.473 78.2122 467.247 77.6656C467.02 77.119 466.687 76.6225 466.269 76.2045C465.85 75.7865 465.352 75.4552 464.805 75.2297C464.258 75.0041 463.672 74.8887 463.08 74.89V74.89Z" fill="white"/>
<path d="M403 105.82H430.23C431.339 105.82 432.402 106.26 433.186 107.044C433.97 107.828 434.41 108.891 434.41 110V110C434.41 111.109 433.97 112.172 433.186 112.956C432.402 113.74 431.339 114.18 430.23 114.18H403V105.81V105.82Z" fill="#C6C6C6"/>
<path d="M456.11 141H403.33V79H456.11C456.168 78.035 456.426 77.0925 456.867 76.2319C457.307 75.3714 457.921 74.6115 458.67 74H398.33V146H458.67C457.921 145.389 457.307 144.629 456.867 143.768C456.426 142.908 456.168 141.965 456.11 141V141Z" fill="white"/>
</svg>
