<svg width="84" height="75" viewBox="0 0 84 75" fill="none" xmlns="http://www.w3.org/2000/svg">
<path fill-rule="evenodd" clip-rule="evenodd" d="M11.4208 60.2461C6.60049 53.937 3.73718 46.0529 3.73718 37.5C3.73718 24.3052 10.552 12.702 20.8539 6.01819C21.747 10.917 22.2509 16.3202 21.7496 21.5C20.8396 30.903 18.2735 38.4659 15.7258 45.9747C14.1524 50.6122 12.5859 55.2291 11.4208 60.2461ZM25.2531 71.4326C25.1627 68.3529 25.2803 64.7266 25.7373 60.5C26.7205 51.4046 28.9124 44.9681 30.8868 39.1701C32.9283 33.1751 34.7373 27.8628 34.7373 21C34.7373 14.8318 33.3803 7.41109 31.9064 1.17006C34.8895 0.406161 38.0159 0 41.2372 0C45.9944 0 50.5447 0.885839 54.7322 2.50156C55.9784 8.13477 56.8439 14.731 56.2373 21C55.3273 30.403 52.7612 37.9659 50.2135 45.4747C48.5615 50.3436 46.9173 55.1897 45.7372 60.5C44.5925 65.6509 44.9765 70.5834 45.8892 74.7143C44.365 74.9029 42.8124 75 41.2372 75C35.5201 75 30.1019 73.7206 25.2531 71.4326ZM68.3905 11.6359C74.8015 18.3644 78.7372 27.4726 78.7372 37.5C78.7372 51.4832 71.0838 63.6788 59.7373 70.1264C59.7316 67.4599 59.8791 64.4273 60.2496 61C61.2329 51.9046 63.4247 45.4681 65.3991 39.6702L65.3991 39.6701C67.4406 33.6751 69.2496 28.3628 69.2496 21.5C69.2496 18.423 68.9119 15.0343 68.3905 11.6359Z" fill="#0F77BE"/>
<path fill-rule="evenodd" clip-rule="evenodd" d="M11.4208 60.2461C6.60049 53.937 3.73718 46.0529 3.73718 37.5C3.73718 24.3052 10.552 12.702 20.8539 6.01819C21.747 10.917 22.2509 16.3202 21.7496 21.5C20.8396 30.903 18.2735 38.4659 15.7258 45.9747C14.1524 50.6122 12.5859 55.2291 11.4208 60.2461ZM25.2531 71.4326C25.1627 68.3529 25.2803 64.7266 25.7373 60.5C26.7205 51.4046 28.9124 44.9681 30.8868 39.1701C32.9283 33.1751 34.7373 27.8628 34.7373 21C34.7373 14.8318 33.3803 7.41109 31.9064 1.17006C34.8895 0.406161 38.0159 0 41.2372 0C45.9944 0 50.5447 0.885839 54.7322 2.50156C55.9784 8.13477 56.8439 14.731 56.2373 21C55.3273 30.403 52.7612 37.9659 50.2135 45.4747C48.5615 50.3436 46.9173 55.1897 45.7372 60.5C44.5925 65.6509 44.9765 70.5834 45.8892 74.7143C44.365 74.9029 42.8124 75 41.2372 75C35.5201 75 30.1019 73.7206 25.2531 71.4326ZM68.3905 11.6359C74.8015 18.3644 78.7372 27.4726 78.7372 37.5C78.7372 51.4832 71.0838 63.6788 59.7373 70.1264C59.7316 67.4599 59.8791 64.4273 60.2496 61C61.2329 51.9046 63.4247 45.4681 65.3991 39.6702L65.3991 39.6701C67.4406 33.6751 69.2496 28.3628 69.2496 21.5C69.2496 18.423 68.9119 15.0343 68.3905 11.6359Z" fill="url(#paint0_linear)"/>
<path fill-rule="evenodd" clip-rule="evenodd" d="M3.94458 39.9626C10.3526 39.718 17.8958 39.8154 23.9485 41.0031C30.6829 42.3245 35.5474 45.1226 41.0372 48.2802C46.3464 51.3341 52.2405 54.7243 60.9763 57.4405C65.0358 58.7027 68.5716 59.5165 71.6111 60.0207C68.0299 64.8847 63.3316 68.7929 57.9705 71.4401C53.2717 69.3308 49.0429 66.9047 44.7951 64.4677C37.9174 60.5218 30.9901 56.5475 21.9383 53.844C16.952 52.3547 11.5529 51.8087 6.57378 51.7418C5.08471 48.0327 4.17815 44.0614 3.94458 39.9626ZM78.805 40.4027C74.5756 40.5029 69.6615 39.9299 64.8274 37.8149C59.8437 35.6343 55.4049 33.0877 50.9452 30.5291C44.0675 26.5832 37.1402 22.6089 28.0884 19.9054C22.0535 18.1029 15.4141 17.6822 9.64635 17.8203C12.6258 13.0892 16.6082 9.12868 21.2397 6.17651C24.6749 6.31923 28.0652 6.64038 31.0846 7.23287C37.819 8.55433 42.6836 11.3524 48.1733 14.51L48.1734 14.5101C53.4826 17.5639 59.3766 20.9541 68.1125 23.6703C71.4043 24.6938 74.3517 25.4225 76.9695 25.9303C78.4957 30.4902 79.1596 35.3919 78.805 40.4027Z" fill="#0F77BE"/>
<path fill-rule="evenodd" clip-rule="evenodd" d="M3.94458 39.9626C10.3526 39.718 17.8958 39.8154 23.9485 41.0031C30.6829 42.3245 35.5474 45.1226 41.0372 48.2802C46.3464 51.3341 52.2405 54.7243 60.9763 57.4405C65.0358 58.7027 68.5716 59.5165 71.6111 60.0207C68.0299 64.8847 63.3316 68.7929 57.9705 71.4401C53.2717 69.3308 49.0429 66.9047 44.7951 64.4677C37.9174 60.5218 30.9901 56.5475 21.9383 53.844C16.952 52.3547 11.5529 51.8087 6.57378 51.7418C5.08471 48.0327 4.17815 44.0614 3.94458 39.9626ZM78.805 40.4027C74.5756 40.5029 69.6615 39.9299 64.8274 37.8149C59.8437 35.6343 55.4049 33.0877 50.9452 30.5291C44.0675 26.5832 37.1402 22.6089 28.0884 19.9054C22.0535 18.1029 15.4141 17.6822 9.64635 17.8203C12.6258 13.0892 16.6082 9.12868 21.2397 6.17651C24.6749 6.31923 28.0652 6.64038 31.0846 7.23287C37.819 8.55433 42.6836 11.3524 48.1733 14.51L48.1734 14.5101C53.4826 17.5639 59.3766 20.9541 68.1125 23.6703C71.4043 24.6938 74.3517 25.4225 76.9695 25.9303C78.4957 30.4902 79.1596 35.3919 78.805 40.4027Z" fill="url(#paint1_linear)"/>
<defs>
<linearGradient id="paint0_linear" x1="41.2372" y1="0" x2="41.2372" y2="75" gradientUnits="userSpaceOnUse">
<stop stop-color="#0F77BE"/>
<stop offset="1" stop-color="#04A0EB"/>
</linearGradient>
<linearGradient id="paint1_linear" x1="5.56757" y1="31.6915" x2="77.7355" y2="45.8528" gradientUnits="userSpaceOnUse">
<stop stop-color="#0F77BE"/>
<stop offset="1" stop-color="#04A0EB"/>
</linearGradient>
</defs>
</svg>
