<svg width="233" height="89" viewBox="0 0 233 89" fill="none" xmlns="http://www.w3.org/2000/svg">
<path fill-rule="evenodd" clip-rule="evenodd" d="M11.4208 67.2461C6.60049 60.937 3.73718 53.0529 3.73718 44.5C3.73718 31.3052 10.552 19.702 20.8539 13.0182C21.747 17.917 22.2509 23.3202 21.7496 28.5C20.8396 37.903 18.2735 45.4659 15.7258 52.9747C14.1524 57.6122 12.5859 62.2291 11.4208 67.2461ZM25.2531 78.4326C25.1627 75.3529 25.2803 71.7266 25.7373 67.5C26.7205 58.4046 28.9124 51.9681 30.8868 46.1701C32.9283 40.1751 34.7373 34.8628 34.7373 28C34.7373 21.8318 33.3803 14.4111 31.9064 8.17006C34.8895 7.40616 38.0159 7 41.2372 7C45.9944 7 50.5447 7.88584 54.7322 9.50156C55.9784 15.1348 56.8439 21.731 56.2373 28C55.3273 37.403 52.7612 44.9659 50.2135 52.4747C48.5615 57.3436 46.9173 62.1897 45.7372 67.5C44.5925 72.6509 44.9765 77.5834 45.8892 81.7143C44.365 81.9029 42.8124 82 41.2372 82C35.5201 82 30.1019 80.7206 25.2531 78.4326ZM68.3905 18.6359C74.8015 25.3644 78.7372 34.4726 78.7372 44.5C78.7372 58.4832 71.0838 70.6788 59.7373 77.1264C59.7316 74.4599 59.8791 71.4273 60.2496 68C61.2329 58.9046 63.4247 52.4681 65.3991 46.6702L65.3991 46.6701C67.4406 40.6751 69.2496 35.3628 69.2496 28.5C69.2496 25.423 68.9119 22.0343 68.3905 18.6359Z" fill="#0F77BE"/>
<path fill-rule="evenodd" clip-rule="evenodd" d="M11.4208 67.2461C6.60049 60.937 3.73718 53.0529 3.73718 44.5C3.73718 31.3052 10.552 19.702 20.8539 13.0182C21.747 17.917 22.2509 23.3202 21.7496 28.5C20.8396 37.903 18.2735 45.4659 15.7258 52.9747C14.1524 57.6122 12.5859 62.2291 11.4208 67.2461ZM25.2531 78.4326C25.1627 75.3529 25.2803 71.7266 25.7373 67.5C26.7205 58.4046 28.9124 51.9681 30.8868 46.1701C32.9283 40.1751 34.7373 34.8628 34.7373 28C34.7373 21.8318 33.3803 14.4111 31.9064 8.17006C34.8895 7.40616 38.0159 7 41.2372 7C45.9944 7 50.5447 7.88584 54.7322 9.50156C55.9784 15.1348 56.8439 21.731 56.2373 28C55.3273 37.403 52.7612 44.9659 50.2135 52.4747C48.5615 57.3436 46.9173 62.1897 45.7372 67.5C44.5925 72.6509 44.9765 77.5834 45.8892 81.7143C44.365 81.9029 42.8124 82 41.2372 82C35.5201 82 30.1019 80.7206 25.2531 78.4326ZM68.3905 18.6359C74.8015 25.3644 78.7372 34.4726 78.7372 44.5C78.7372 58.4832 71.0838 70.6788 59.7373 77.1264C59.7316 74.4599 59.8791 71.4273 60.2496 68C61.2329 58.9046 63.4247 52.4681 65.3991 46.6702L65.3991 46.6701C67.4406 40.6751 69.2496 35.3628 69.2496 28.5C69.2496 25.423 68.9119 22.0343 68.3905 18.6359Z" fill="url(#paint0_linear)"/>
<path fill-rule="evenodd" clip-rule="evenodd" d="M3.94458 46.9626C10.3526 46.718 17.8958 46.8154 23.9485 48.0031C30.6829 49.3245 35.5474 52.1226 41.0372 55.2802C46.3464 58.3341 52.2405 61.7243 60.9763 64.4405C65.0358 65.7027 68.5716 66.5165 71.6111 67.0207C68.0299 71.8847 63.3316 75.7929 57.9705 78.4401C53.2717 76.3308 49.0429 73.9047 44.7951 71.4677C37.9174 67.5218 30.9901 63.5475 21.9383 60.844C16.952 59.3547 11.5529 58.8087 6.57378 58.7418C5.08471 55.0327 4.17815 51.0614 3.94458 46.9626ZM78.805 47.4027C74.5756 47.5029 69.6615 46.9299 64.8274 44.8149C59.8437 42.6343 55.4049 40.0877 50.9452 37.5291C44.0675 33.5832 37.1402 29.6089 28.0884 26.9054C22.0535 25.1029 15.4141 24.6822 9.64635 24.8203C12.6258 20.0892 16.6082 16.1287 21.2397 13.1765C24.6749 13.3192 28.0652 13.6404 31.0846 14.2329C37.819 15.5543 42.6836 18.3524 48.1733 21.51L48.1734 21.5101C53.4826 24.5639 59.3766 27.9541 68.1125 30.6703C71.4043 31.6938 74.3517 32.4225 76.9695 32.9303C78.4957 37.4902 79.1596 42.3919 78.805 47.4027Z" fill="#0F77BE"/>
<path fill-rule="evenodd" clip-rule="evenodd" d="M3.94458 46.9626C10.3526 46.718 17.8958 46.8154 23.9485 48.0031C30.6829 49.3245 35.5474 52.1226 41.0372 55.2802C46.3464 58.3341 52.2405 61.7243 60.9763 64.4405C65.0358 65.7027 68.5716 66.5165 71.6111 67.0207C68.0299 71.8847 63.3316 75.7929 57.9705 78.4401C53.2717 76.3308 49.0429 73.9047 44.7951 71.4677C37.9174 67.5218 30.9901 63.5475 21.9383 60.844C16.952 59.3547 11.5529 58.8087 6.57378 58.7418C5.08471 55.0327 4.17815 51.0614 3.94458 46.9626ZM78.805 47.4027C74.5756 47.5029 69.6615 46.9299 64.8274 44.8149C59.8437 42.6343 55.4049 40.0877 50.9452 37.5291C44.0675 33.5832 37.1402 29.6089 28.0884 26.9054C22.0535 25.1029 15.4141 24.6822 9.64635 24.8203C12.6258 20.0892 16.6082 16.1287 21.2397 13.1765C24.6749 13.3192 28.0652 13.6404 31.0846 14.2329C37.819 15.5543 42.6836 18.3524 48.1733 21.51L48.1734 21.5101C53.4826 24.5639 59.3766 27.9541 68.1125 30.6703C71.4043 31.6938 74.3517 32.4225 76.9695 32.9303C78.4957 37.4902 79.1596 42.3919 78.805 47.4027Z" fill="url(#paint1_linear)"/>
<path d="M144.238 55.0737C143.561 58.5076 142.697 61.34 141.644 63.5708C140.591 65.7765 139.526 67.5186 138.448 68.7969C137.37 70.0752 136.355 70.965 135.403 71.4663C134.475 71.9676 133.773 72.2183 133.297 72.2183C132.545 72.2183 131.58 71.8924 130.402 71.2407C129.224 70.589 127.921 69.7493 126.492 68.7217C125.088 67.694 123.622 66.541 122.093 65.2627C120.589 63.9593 119.135 62.6685 117.732 61.3901C116.328 60.1118 115.037 58.9087 113.859 57.7808C112.681 56.6528 111.729 55.7254 111.002 54.9985L111.303 64.2852L119.236 68.6841L95.3612 70.376L103.37 63.0068L104.761 25.1836L94.9852 20.4839C99.8729 20.2082 104.021 20.0076 107.43 19.8823C110.839 19.7319 113.659 19.6317 115.89 19.5815C118.12 19.5314 119.837 19.5063 121.04 19.5063C122.244 19.5063 123.096 19.5063 123.597 19.5063C124.675 19.5063 125.84 19.6066 127.094 19.8071C128.372 19.9826 129.638 20.2959 130.891 20.7471C132.144 21.1732 133.36 21.7246 134.538 22.4014C135.716 23.0781 136.756 23.9053 137.659 24.8828C138.561 25.8604 139.275 27.0008 139.802 28.3042C140.353 29.5825 140.629 31.0363 140.629 32.6655C140.629 33.0415 140.579 33.5679 140.478 34.2446C140.403 34.8963 140.228 35.6608 139.952 36.5381C139.676 37.3903 139.263 38.3052 138.711 39.2827C138.16 40.2352 137.408 41.2002 136.455 42.1777C135.528 43.1302 134.375 44.0576 132.996 44.96C131.618 45.8623 129.951 46.6644 127.996 47.3662C126.066 48.068 123.81 48.6445 121.228 49.0957C118.672 49.5218 115.739 49.7599 112.431 49.8101C114.06 51.0382 115.827 52.3542 117.732 53.7578C119.637 55.1364 121.567 56.4147 123.522 57.5928C125.477 58.7458 127.394 59.7108 129.274 60.4878C131.154 61.2397 132.909 61.6157 134.538 61.6157C135.315 61.6157 136.142 61.528 137.019 61.3525C137.922 61.1771 138.799 60.8512 139.651 60.375C140.529 59.8737 141.356 59.2095 142.133 58.3823C142.935 57.5301 143.637 56.4272 144.238 55.0737ZM129.763 34.4326C129.763 33.6556 129.7 32.8786 129.575 32.1016C129.45 31.3245 129.187 30.5851 128.786 29.8833C128.384 29.1815 127.808 28.5173 127.056 27.8906C126.304 27.264 125.289 26.7251 124.011 26.2739C122.757 25.8228 121.203 25.4718 119.349 25.2212C117.494 24.9455 115.275 24.8076 112.694 24.8076C112.293 24.8076 111.904 24.8076 111.528 24.8076C111.152 24.8076 110.764 24.8327 110.363 24.8828L110.739 44.96C112.318 44.9349 113.884 44.8096 115.438 44.584C116.992 44.3333 118.471 43.995 119.875 43.5688C121.279 43.1427 122.582 42.6289 123.785 42.0273C125.013 41.4258 126.066 40.749 126.943 39.9971C127.821 39.2201 128.51 38.3678 129.011 37.4404C129.512 36.513 129.763 35.5104 129.763 34.4326ZM206.462 19.3184L197.063 26.3491L198.529 62.9316L206.086 66.3906L183.189 71.1655L192.514 62.9316L186.348 33.1167L177.963 66.3906L159.804 36.1245L154.878 63.3828L162.097 69.4736L142.997 70.4512L150.555 63.6084L152.886 24.3564L144.953 19.3184L163.488 18.416L175.971 53.6826L185.52 18.792L206.462 19.3184ZM222.216 29.1313L223.306 63.1572L231.089 68.6089L204.432 70.9399L213.606 63.3076L215.899 26.8755L208.041 20.7095L230.938 22.1006L222.216 29.1313Z" fill="white"/>
<path d="M144.238 55.0737C143.561 58.5076 142.697 61.34 141.644 63.5708C140.591 65.7765 139.526 67.5186 138.448 68.7969C137.37 70.0752 136.355 70.965 135.403 71.4663C134.475 71.9676 133.773 72.2183 133.297 72.2183C132.545 72.2183 131.58 71.8924 130.402 71.2407C129.224 70.589 127.921 69.7493 126.492 68.7217C125.088 67.694 123.622 66.541 122.093 65.2627C120.589 63.9593 119.135 62.6685 117.732 61.3901C116.328 60.1118 115.037 58.9087 113.859 57.7808C112.681 56.6528 111.729 55.7254 111.002 54.9985L111.303 64.2852L119.236 68.6841L95.3612 70.376L103.37 63.0068L104.761 25.1836L94.9852 20.4839C99.8729 20.2082 104.021 20.0076 107.43 19.8823C110.839 19.7319 113.659 19.6317 115.89 19.5815C118.12 19.5314 119.837 19.5063 121.04 19.5063C122.244 19.5063 123.096 19.5063 123.597 19.5063C124.675 19.5063 125.84 19.6066 127.094 19.8071C128.372 19.9826 129.638 20.2959 130.891 20.7471C132.144 21.1732 133.36 21.7246 134.538 22.4014C135.716 23.0781 136.756 23.9053 137.659 24.8828C138.561 25.8604 139.275 27.0008 139.802 28.3042C140.353 29.5825 140.629 31.0363 140.629 32.6655C140.629 33.0415 140.579 33.5679 140.478 34.2446C140.403 34.8963 140.228 35.6608 139.952 36.5381C139.676 37.3903 139.263 38.3052 138.711 39.2827C138.16 40.2352 137.408 41.2002 136.455 42.1777C135.528 43.1302 134.375 44.0576 132.996 44.96C131.618 45.8623 129.951 46.6644 127.996 47.3662C126.066 48.068 123.81 48.6445 121.228 49.0957C118.672 49.5218 115.739 49.7599 112.431 49.8101C114.06 51.0382 115.827 52.3542 117.732 53.7578C119.637 55.1364 121.567 56.4147 123.522 57.5928C125.477 58.7458 127.394 59.7108 129.274 60.4878C131.154 61.2397 132.909 61.6157 134.538 61.6157C135.315 61.6157 136.142 61.528 137.019 61.3525C137.922 61.1771 138.799 60.8512 139.651 60.375C140.529 59.8737 141.356 59.2095 142.133 58.3823C142.935 57.5301 143.637 56.4272 144.238 55.0737ZM129.763 34.4326C129.763 33.6556 129.7 32.8786 129.575 32.1016C129.45 31.3245 129.187 30.5851 128.786 29.8833C128.384 29.1815 127.808 28.5173 127.056 27.8906C126.304 27.264 125.289 26.7251 124.011 26.2739C122.757 25.8228 121.203 25.4718 119.349 25.2212C117.494 24.9455 115.275 24.8076 112.694 24.8076C112.293 24.8076 111.904 24.8076 111.528 24.8076C111.152 24.8076 110.764 24.8327 110.363 24.8828L110.739 44.96C112.318 44.9349 113.884 44.8096 115.438 44.584C116.992 44.3333 118.471 43.995 119.875 43.5688C121.279 43.1427 122.582 42.6289 123.785 42.0273C125.013 41.4258 126.066 40.749 126.943 39.9971C127.821 39.2201 128.51 38.3678 129.011 37.4404C129.512 36.513 129.763 35.5104 129.763 34.4326ZM206.462 19.3184L197.063 26.3491L198.529 62.9316L206.086 66.3906L183.189 71.1655L192.514 62.9316L186.348 33.1167L177.963 66.3906L159.804 36.1245L154.878 63.3828L162.097 69.4736L142.997 70.4512L150.555 63.6084L152.886 24.3564L144.953 19.3184L163.488 18.416L175.971 53.6826L185.52 18.792L206.462 19.3184ZM222.216 29.1313L223.306 63.1572L231.089 68.6089L204.432 70.9399L213.606 63.3076L215.899 26.8755L208.041 20.7095L230.938 22.1006L222.216 29.1313Z" fill="url(#paint2_linear)"/>
<defs>
<linearGradient id="paint0_linear" x1="41.2372" y1="7" x2="41.2372" y2="82" gradientUnits="userSpaceOnUse">
<stop stop-color="#0F77BE"/>
<stop offset="1" stop-color="#04A0EB"/>
</linearGradient>
<linearGradient id="paint1_linear" x1="5.56757" y1="38.6915" x2="77.7355" y2="52.8528" gradientUnits="userSpaceOnUse">
<stop stop-color="#0F77BE"/>
<stop offset="1" stop-color="#04A0EB"/>
</linearGradient>
<linearGradient id="paint2_linear" x1="139.737" y1="18.5" x2="164.237" y2="89" gradientUnits="userSpaceOnUse">
<stop stop-color="#8EC840" stop-opacity="0.16"/>
<stop offset="1" stop-color="white" stop-opacity="0"/>
</linearGradient>
</defs>
</svg>
